<svg xmlns="http://www.w3.org/2000/svg" xmlns:xlink="http://www.w3.org/1999/xlink" width="200" height="200" viewBox="0 0 200 200">
  <defs>
    <clipPath id="clip-category_icon_2">
      <rect width="200" height="200"/>
    </clipPath>
  </defs>
  <g id="category_icon_2" clip-path="url(#clip-category_icon_2)">
    <circle id="楕円形_6" data-name="楕円形 6" cx="96.5" cy="96.5" r="96.5" transform="translate(4 4)" fill="#ffa177"/>
    <g id="えんぴつ付きのノートアイコン" transform="translate(29.919 -47.71)">
      <path id="パス_124" data-name="パス 124" d="M134.9,182.089q-3.058-10.612-6.107-21.228-1-3.453-1.989-6.909l-5.522,5.522q2.683,10.565,5.366,21.134c.883,3.47-1.432,6.557-5.237,5.371a60.973,60.973,0,0,0-19.85-4.759,52.468,52.468,0,0,0-22.6,4.126c-.8.33-6.133,4.171-6.347,1.445q-.174-9.555-.352-19.109-.368-19.738-.732-39.472c-.013-.754,1.807-1.133,2.181-1.276a47.564,47.564,0,0,1,9.238-2.413,55.191,55.191,0,0,1,22.66,1.289c2.382.607,4.88,1.347,6.637,2.882l3.551-3.546a19.266,19.266,0,0,0-3.823-2.226c-6.347-2.841-14.4-3.966-21.29-4.126a63.151,63.151,0,0,0-21.83,3.368c-1.356.464-3.573-.767-4.96-1.142-1.633-.442-3.283-.812-4.947-1.124a66.863,66.863,0,0,0-11.116-1.106,70.8,70.8,0,0,0-21.21,3.3c-1.5.562-.428.165-.094.04-4.246,1.606-8.9,4.229-10.242,8.886-.335,1.164-.673,2.328-1.008,3.493q-2.543,8.839-5.085,17.673-3.479,12.084-6.954,24.159c-1.347,4.688-4.019,10.71-3.02,15.639,1.222,6.1,7.191,8.912,12.958,7.739A44.227,44.227,0,0,0,19,197.67a74.14,74.14,0,0,1,9.912-2.837c8.109-1.682,16.344-.79,24.315,1.267,1.78.459,8.448,1.61,8.64,3.6.183,1.856,2.315,1.351,3.658,1.351h4c1.222,0,3.27.424,4.429-.085s.268-1.78,1.365-2.257a45.446,45.446,0,0,1,4.594-1.664,72.47,72.47,0,0,1,11.125-2.525,51.374,51.374,0,0,1,23.392,2.114c4.527,1.427,8.917,4.059,13.828,3.181,6.7-1.186,9.434-8.029,7.677-14.131C135.619,184.475,135.245,183.284,134.9,182.089ZM64.66,143.852q-.4,21.217-.79,42.429c-.018.946-.277,1.534-1.329,1.508a50.115,50.115,0,0,0-19.1-6.2,53.357,53.357,0,0,0-22.691,2.373c-2.3.709-4.867,2.27-7.3,2.27a3.89,3.89,0,0,1-3.756-5.072q2.556-10.043,5.1-20.091,3-11.809,6-23.623.749-2.937,1.494-5.883c1.218-4.8,8.007-5.71,12.061-6.553a52.426,52.426,0,0,1,22.785.219c1.3.308,7.851,1.316,7.815,3.185Q64.8,136.135,64.66,143.852Z" transform="translate(0 -10.24)" fill="#fff"/>
      <path id="パス_125" data-name="パス 125" d="M304.609,163.645l19.854-4.211,39.352-39.342-15.648-15.648-39.342,39.343Zm51.658-43.553-33.74,33.736-3.484-3.484,33.74-33.736Zm-8.1-8.1,3.484,3.484-33.74,33.736-3.484-3.484ZM313.637,147.2l7.418,7.422-6.909,1.521-2.034-2.029Z" transform="translate(-217.651 0)" fill="#fff"/>
    </g>
  </g>
</svg>
