<svg xmlns="http://www.w3.org/2000/svg" xmlns:xlink="http://www.w3.org/1999/xlink" width="200" height="200" viewBox="0 0 200 200">
  <defs>
    <clipPath id="clip-category_icon_7">
      <rect width="200" height="200"/>
    </clipPath>
  </defs>
  <g id="category_icon_7" clip-path="url(#clip-category_icon_7)">
    <circle id="楕円形_6" data-name="楕円形 6" cx="96.5" cy="96.5" r="96.5" transform="translate(4 4)" fill="#438aea"/>
    <g id="ハサミアイコン5" transform="translate(22.869 32.389)">
      <path id="パス_132" data-name="パス 132" d="M92.838,60.99l-3.131-3.131,50.6-50.6c-26.234,2.275-54.881,31.876-72,49L63.155,75.039,45.939,79.5A23.636,23.636,0,1,0,46.6,89.76L59.775,86.7,56.719,99.887c-.272.043-.552.076-.828.13a23.428,23.428,0,1,0,13.294,1.289c-.681-.275-1.371-.506-2.073-.718l5.8-17.46,17.309-4.957c17.056-17.056,50.276-41.792,53.064-67.623ZM34.16,88.2a10.8,10.8,0,0,1-3,5.626,10.914,10.914,0,0,1-18.436-9.812A10.947,10.947,0,0,1,19.332,76a10.988,10.988,0,0,1,6.2-.6A10.914,10.914,0,0,1,34.16,88.2Zm33.925,27.109a10.933,10.933,0,0,1-3.609,17.84,11.029,11.029,0,0,1-6.2.6,10.919,10.919,0,1,1,9.812-18.438ZM83.1,69.532a4.194,4.194,0,1,1,0-5.93A4.194,4.194,0,0,1,83.1,69.532Z" transform="translate(0 0)" fill="#fff"/>
    </g>
  </g>
</svg>
