<svg xmlns="http://www.w3.org/2000/svg" xmlns:xlink="http://www.w3.org/1999/xlink" width="200" height="200" viewBox="0 0 200 200">
  <defs>
    <clipPath id="clip-category_icon_8">
      <rect width="200" height="200"/>
    </clipPath>
  </defs>
  <g id="category_icon_8" clip-path="url(#clip-category_icon_8)">
    <circle id="楕円形_6" data-name="楕円形 6" cx="96.5" cy="96.5" r="96.5" transform="translate(4 4)" fill="#5643ea"/>
    <g id="薬のフリーアイコン10" transform="translate(40.1 39.56)">
      <path id="パス_141" data-name="パス 141" d="M110.39,65.675,54.832,10.75l.015.016A32.129,32.129,0,0,0,9.41,56.206l55.557,54.923-.015-.016A32.129,32.129,0,0,0,110.39,65.675ZM18.626,42.736A13.82,13.82,0,0,1,28.465,19.21ZM104.978,105.7a24.484,24.484,0,0,1-34.616,0l-.012-.012,0,0-25.6-25.307c.075-.493.188-1.072.352-1.713a41.15,41.15,0,0,1,3.584-8.943A47.494,47.494,0,0,1,60.811,54.9a34.812,34.812,0,0,1,20.025-7.685l24.132,23.857.011.009a24.482,24.482,0,0,1,0,34.621Z" transform="translate(0 0)" fill="#fff"/>
    </g>
  </g>
</svg>
