<svg xmlns="http://www.w3.org/2000/svg" xmlns:xlink="http://www.w3.org/1999/xlink" width="200" height="200" viewBox="0 0 200 200">
  <defs>
    <clipPath id="clip-category_icon_5">
      <rect width="200" height="200"/>
    </clipPath>
  </defs>
  <g id="category_icon_5" clip-path="url(#clip-category_icon_5)">
    <circle id="楕円形_6" data-name="楕円形 6" cx="96.5" cy="96.5" r="96.5" transform="translate(4 4)" fill="#33e8a9"/>
    <g id="電車_駅のマーク" data-name="電車、駅のマーク" transform="translate(-19.306 33.561)">
      <path id="パス_128" data-name="パス 128" d="M157.442,432.246v-.165H108.8v.165h-2.736L89.982,452.822h11.846l3.557-5.251H160.75l3.556,5.251h11.85l-16.078-20.576Zm-48.625,10.26,3.63-5.359h41.242l3.63,5.359Z" transform="translate(-13.762 -319.945)" fill="#fff"/>
      <path id="パス_129" data-name="パス 129" d="M119.307,0C82.129,0,71.4,13.491,71.4,23.789V90.9a16.408,16.408,0,0,0,16.408,16.406h63A16.4,16.4,0,0,0,167.216,90.9V23.789C167.216,13.491,156.486,0,119.307,0ZM101.942,14.79H136.67a4.18,4.18,0,0,1,0,8.36H101.942a4.18,4.18,0,0,1,0-8.36ZM94.463,93.024a5.212,5.212,0,1,1,5.212-5.212A5.212,5.212,0,0,1,94.463,93.024ZM115.658,62.1H87.834V36.649h27.824Zm28.494,30.925a5.212,5.212,0,1,1,5.212-5.212A5.212,5.212,0,0,1,144.152,93.024ZM152.019,62.1H122.955V36.649h29.063Z" fill="#fff"/>
    </g>
  </g>
</svg>
