<svg xmlns="http://www.w3.org/2000/svg" xmlns:xlink="http://www.w3.org/1999/xlink" width="200" height="200" viewBox="0 0 200 200">
  <defs>
    <clipPath id="clip-category_icon_10">
      <rect width="200" height="200"/>
    </clipPath>
  </defs>
  <g id="category_icon_10" clip-path="url(#clip-category_icon_10)">
    <circle id="楕円形_6" data-name="楕円形 6" cx="96.5" cy="96.5" r="96.5" transform="translate(4 4)" fill="#f176fc"/>
    <g id="お年玉アイコン2" transform="translate(-11.325 38.241)">
      <path id="パス_135" data-name="パス 135" d="M157.324,62.082V6.759A6.758,6.758,0,0,0,150.567,0H72.084a6.759,6.759,0,0,0-6.758,6.759V62.082h8.405l2.751,5.5H65.326V116.76a6.757,6.757,0,0,0,6.758,6.757h78.484a6.756,6.756,0,0,0,6.757-6.757V67.583H146.169l2.751-5.5h8.4ZM139.4,9.771,144.826,15l-1.357,14.074L139.4,31.888l-4.071-2.815L133.968,15Zm3.331,51.775h0a14.769,14.769,0,0,1-7.536,5.772,20.8,20.8,0,0,1-4.124.913v.041H130.8a41.162,41.162,0,0,1-4.713.234c-3.012,0-6.2-.174-9.552-.211l10.032,14.216-4.5,3.173L111.325,70.452,100.574,85.685l-4.495-3.173L106.111,68.3c-3.347.038-6.54.209-9.553.211a41.162,41.162,0,0,1-4.713-.234h-.26v-.041a20.785,20.785,0,0,1-4.124-.913,14.768,14.768,0,0,1-7.536-5.772l.26.376-.261-.376a13.185,13.185,0,0,1-2.342-7.495,12.947,12.947,0,0,1,5.487-10.614l-.75.528.749-.528A13.01,13.01,0,0,1,101.2,46.566l10.123,14.343,10.123-14.343a12.994,12.994,0,0,1,23.621,7.486A13.207,13.207,0,0,1,142.727,61.546Z" fill="#fff"/>
      <path id="パス_136" data-name="パス 136" d="M146.412,192.986a7.454,7.454,0,0,0-4.321,1.374v0a7.439,7.439,0,0,0-3.157,6.119,7.67,7.67,0,0,0,1.368,4.368v0a9.192,9.192,0,0,0,4.8,3.695,14.965,14.965,0,0,0,3.006.655h13.648l-9.2-13.034A7.494,7.494,0,0,0,146.412,192.986Z" transform="translate(-55.849 -146.429)" fill="#fff"/>
      <path id="パス_137" data-name="パス 137" d="M298.131,194.36a7.508,7.508,0,0,0-10.466,1.809l-9.2,13.032h13.647a14.933,14.933,0,0,0,3.006-.655,9.189,9.189,0,0,0,4.8-3.695v0a7.687,7.687,0,0,0,1.37-4.372A7.445,7.445,0,0,0,298.131,194.36Z" transform="translate(-161.722 -146.429)" fill="#fff"/>
    </g>
  </g>
</svg>
