<svg xmlns="http://www.w3.org/2000/svg" xmlns:xlink="http://www.w3.org/1999/xlink" width="200" height="200" viewBox="0 0 200 200">
  <defs>
    <clipPath id="clip-category_icon_0">
      <rect width="200" height="200"/>
    </clipPath>
  </defs>
  <g id="category_icon_0" clip-path="url(#clip-category_icon_0)">
    <circle id="楕円形_6" data-name="楕円形 6" cx="96.5" cy="96.5" r="96.5" transform="translate(4 4)" fill="#939393"/>
    <g id="クエスチョンマーク" transform="translate(-38.116 35.666)">
      <path id="パス_142" data-name="パス 142" d="M179.749,22.6A41.343,41.343,0,0,0,164.025,6.43,46.816,46.816,0,0,0,140.226,0a53.355,53.355,0,0,0-26.858,6.762,30.023,30.023,0,0,0-9.845,8.5,5.143,5.143,0,0,0,.146,7.907L113.19,30.8a5.143,5.143,0,0,0,6.591-.137s1.17-2.114,4.835-4.208c3.686-2.08,8.465-3.756,15.609-3.778a23.692,23.692,0,0,1,15.373,5.49,17.224,17.224,0,0,1,4.062,4.95,9.039,9.039,0,0,1,1.156,4.127,17.138,17.138,0,0,1-1.75,8.066,16.445,16.445,0,0,1-3.11,4.172,34.861,34.861,0,0,1-7.587,5.426c-2.98,1.682-6.191,3.162-9.436,4.95a29.193,29.193,0,0,0-10.52,9.418,25.49,25.49,0,0,0-3.29,7.324,31,31,0,0,0-1.055,8.233v5.487a5.143,5.143,0,0,0,5.143,5.143H141.6a5.143,5.143,0,0,0,5.143-5.143V84.831a8.612,8.612,0,0,1,.243-2.235,2.777,2.777,0,0,1,.654-1.237,8.841,8.841,0,0,1,2.3-1.678c1.86-1.046,4.849-2.458,8.233-4.286,5.067-2.771,11.226-6.531,16.421-12.735a37.627,37.627,0,0,0,6.445-11.121,41.067,41.067,0,0,0,2.445-14.3A31.6,31.6,0,0,0,179.749,22.6Z" fill="#fff"/>
      <path id="パス_143" data-name="パス 143" d="M190.009,406.44a13.985,13.985,0,1,0,13.981,13.988A13.99,13.99,0,0,0,190.009,406.44Z" transform="translate(-54.598 -298.743)" fill="#fff"/>
    </g>
  </g>
</svg>
