<svg xmlns="http://www.w3.org/2000/svg" xmlns:xlink="http://www.w3.org/1999/xlink" width="200" height="200" viewBox="0 0 200 200">
  <defs>
    <clipPath id="clip-category_icon_4">
      <rect width="200" height="200"/>
    </clipPath>
  </defs>
  <g id="category_icon_4" clip-path="url(#clip-category_icon_4)">
    <circle id="楕円形_6" data-name="楕円形 6" cx="96.5" cy="96.5" r="96.5" transform="translate(4 4)" fill="#a8ef56"/>
    <g id="タートルネックの無料アイコン_1_" data-name="タートルネックの無料アイコン (1)" transform="translate(17.735 35.249)">
      <path id="パス_127" data-name="パス 127" d="M135.853,35.341a38.91,38.91,0,0,0-21.183-17.7c-3.2-1.2-5.978-1.965-7.488-2.65l-.013-.005a7.343,7.343,0,0,1-.863-.443l-.188-.129V7.92A7.914,7.914,0,0,0,98.2,0H77.37a7.913,7.913,0,0,0-7.915,7.915v6.408a5.273,5.273,0,0,1-.937.479c-.626.265-1.465.562-2.442.86l-.018.005a57.013,57.013,0,0,0-12.8,5.123A35.22,35.22,0,0,0,39.638,35.486a47.769,47.769,0,0,0-4.691,16.1c-.714,5.54-.85,11.261-1.151,17.273-.6,12.059-1.746,25.371-8.758,41.333l-.613,1.4-.981,2.233,25.907,7.148,1.136-2.856c.075-.188.142-.389.217-.58V129.5H124.87V98.086c7.614-10.519,13.085-21.791,15.14-32.946h.124l.237-1.888a39.285,39.285,0,0,0,.716-7.48A42.124,42.124,0,0,0,135.853,35.341Zm-.17,27.174-.005.031-.005.033c-2.5,16.987-14.414,35.519-30.249,50.376L94.64,100.473c3.57-3.145,9.284-7,14.356-13.88,5.538-7.508,10.244-18.623,10.836-36.3l-2.638-.088c-.592,17.265-5.113,27.746-10.323,34.827S95.7,95.788,91.886,99.4l-.907.865,14.24,16.485,1-.919a130.9,130.9,0,0,0,13.9-14.934v23.854H55.45V92.445h-.167a243.792,243.792,0,0,0,3.225-25.618l-2.632-.2c-1.275,17.252-4.288,35.218-9.4,48.614l-16.521-4.556c6.8-16.065,8-29.768,8.582-41.6.585-12.2.631-22.373,5.319-31.426C48.969,27.8,56.1,24.088,62.183,21.9c3.045-1.09,5.8-1.757,7.959-2.627a8.542,8.542,0,0,0,2.8-1.669A4.037,4.037,0,0,0,74.2,14.638V7.921A3.174,3.174,0,0,1,77.37,4.747H98.2a3.173,3.173,0,0,1,3.168,3.168v6.722a4.17,4.17,0,0,0,1.191,2.952c1.29,1.308,3.1,1.957,5.275,2.718,6.517,2.238,16.57,4.775,23.91,17.409a37.5,37.5,0,0,1,4.59,18.056A34.331,34.331,0,0,1,135.683,62.515Z" fill="#fff"/>
    </g>
  </g>
</svg>
