<svg xmlns="http://www.w3.org/2000/svg" xmlns:xlink="http://www.w3.org/1999/xlink" width="200" height="200" viewBox="0 0 200 200">
  <defs>
    <clipPath id="clip-category_icon_3">
      <rect width="200" height="200"/>
    </clipPath>
  </defs>
  <g id="category_icon_3" clip-path="url(#clip-category_icon_3)">
    <circle id="楕円形_6" data-name="楕円形 6" cx="96.5" cy="96.5" r="96.5" transform="translate(4 4)" fill="#f5de31"/>
    <g id="無料のタブレットアイコン素材2" transform="translate(-14.616 40.708)">
      <path id="パス_126" data-name="パス 126" d="M144.1,0H85.13A13.128,13.128,0,0,0,72,13.13v92.326a13.128,13.128,0,0,0,13.13,13.129H144.1a13.131,13.131,0,0,0,13.133-13.129V13.13A13.131,13.131,0,0,0,144.1,0ZM115.543,112.1a3.4,3.4,0,1,1,3.4-3.4A3.4,3.4,0,0,1,115.543,112.1ZM146.115,98.2h-63V14.823h63Z" fill="#fff"/>
    </g>
  </g>
</svg>
