<svg xmlns="http://www.w3.org/2000/svg" xmlns:xlink="http://www.w3.org/1999/xlink" width="1000" height="239" viewBox="0 0 1000 239">
  <defs>
    <clipPath id="clip-カスタムサイズ_1">
      <rect width="1000" height="239"/>
    </clipPath>
  </defs>
  <g id="カスタムサイズ_1" data-name="カスタムサイズ – 1" clip-path="url(#clip-カスタムサイズ_1)">
    <path id="パス_1" data-name="パス 1" d="M15.471,47.413H7.553V-69.981h7.919V-5.246l68.5-64.735h10.1l-50.482,48.9,52.659,68.5h-9.7l-48.9-63.151L15.471,4.454Zm124.643,2.97q-12.472,0-21.182-6.929-8.908-7.127-8.909-17.025,0-9.5,8.711-16.629,8.513-7.127,21.38-8.315A88.46,88.46,0,0,0,160.5-2.475q8.117-2.772,8.117-6.533V-16.53q0-6.533-7.127-11.086-6.929-4.553-17.025-4.553a30.234,30.234,0,0,0-16.431,4.355q-6.731,4.553-6.731,10.69v4.355h-7.523v-5.147q0-8.513,8.909-14.452,9.106-5.939,21.776-5.939,13.066,0,22.37,5.741t9.3,13.858V32.367a16.011,16.011,0,0,0,2.178,8.513q2.178,3.563,5.345,3.563a7.36,7.36,0,0,0,1.782-.2,2.51,2.51,0,0,0,1.188-.594v3.761a17.814,17.814,0,0,1-7.523,1.386,10.118,10.118,0,0,1-7.919-3.959,14.739,14.739,0,0,1-3.167-9.5q-2.376,6.731-10.1,10.888A37,37,0,0,1,140.114,50.382Zm0-5.939a27.839,27.839,0,0,0,18.609-6.929,27.7,27.7,0,0,0,9.9-17.223V.891q-2.772,2.376-10.1,3.959a139.951,139.951,0,0,1-18.411,2.574,26.467,26.467,0,0,0-15.639,6.335q-6.335,5.345-6.335,12.67,0,7.523,6.533,12.67A23.139,23.139,0,0,0,140.114,44.443Zm76.537,2.97h-7.919V-36.921h7.919v14.254a27.037,27.037,0,0,1,10.888-11.878A30.137,30.137,0,0,1,243.773-39.1a29.938,29.938,0,0,1,21.182,8.117q8.908,8.315,8.909,19.8v58.6h-7.919v-58.6a19.627,19.627,0,0,0-6.533-14.848,22.044,22.044,0,0,0-15.639-6.137,26.058,26.058,0,0,0-17.619,6.731,29.2,29.2,0,0,0-9.5,17.223Zm120.485,2.97q-17.025,0-27.319-12.274Q299.523,25.637,299.523,5.246t10.294-32.862Q320.112-39.89,337.137-39.89t27.319,11.284Q374.75-17.322,374.75,1.485V5.246H307.442q0,17.223,8.117,27.517t21.578,10.294a32.388,32.388,0,0,0,18.213-5.345,28.577,28.577,0,0,0,11.482-14.452h7.919q-1.98,11.68-12.67,19.4A41.479,41.479,0,0,1,337.137,50.382ZM307.442-2.277h59.39V-5.246a30.005,30.005,0,0,0-9.5-19.8,29.1,29.1,0,0,0-20.193-7.919,28.034,28.034,0,0,0-19.995,8.117,30.759,30.759,0,0,0-9.7,20.391Zm100.689,49.69h-7.919V-36.921h7.919v19a35.9,35.9,0,0,1,9.9-14.848q6.731-5.543,14.254-5.543h4.553V-29.2a3.19,3.19,0,0,1-1.386-.4,2.041,2.041,0,0,0-.792-.4q-9.3,0-16.827,7.919a38.074,38.074,0,0,0-9.7,19.995ZM491.794,48.8q-18.015,0-28.705-11.878Q452.2,25.043,452.2,5.246q0-20.391,10.888-32.862,10.69-12.274,28.705-12.274,17.817,0,28.705,12.274,10.69,12.472,10.69,32.862,0,19.8-10.69,31.675Q509.611,48.8,491.794,48.8Zm0-6.533q14.254,0,22.964-10.1,8.512-10.1,8.513-26.923,0-17.421-8.513-27.715-8.711-10.492-22.964-10.492-14.452,0-22.964,10.492Q460.12-12.175,460.12,5.246q0,16.827,8.711,26.923Q477.343,42.266,491.794,42.266Zm74.161,5.147h-7.919V-69.981h7.919V6.83l45.136-43.751h9.9L588.524-6.038l36.228,53.451h-8.315L583.377-.693,565.956,15.936Zm107.816,2.178a29.3,29.3,0,0,1-20.391-7.721q-8.512-7.721-8.513-18.609V-36.921h7.919V23.261a18.914,18.914,0,0,0,6.137,14.056,20.95,20.95,0,0,0,14.847,5.741q10.294,0,18.411-7.919a36.086,36.086,0,0,0,10.294-19.995V-36.921H710.4V47.413h-7.919V32.565a28.19,28.19,0,0,1-11.482,12.472A33.268,33.268,0,0,1,673.771,49.591Z" transform="translate(238.371 131.36)" fill="#f8bf00"/>
    <path id="前面オブジェクトで型抜き_1" data-name="前面オブジェクトで型抜き 1" d="M85.5,171a86.132,86.132,0,0,1-17.231-1.737A85.032,85.032,0,0,1,37.7,156.4,85.75,85.75,0,0,1,6.719,118.78a85.069,85.069,0,0,1-4.982-16.049,86.333,86.333,0,0,1,0-34.462A85.032,85.032,0,0,1,14.6,37.7,85.75,85.75,0,0,1,52.22,6.719,85.07,85.07,0,0,1,68.269,1.737a86.333,86.333,0,0,1,34.462,0A85.032,85.032,0,0,1,133.3,14.6,85.75,85.75,0,0,1,164.281,52.22a85.071,85.071,0,0,1,4.982,16.049,86.333,86.333,0,0,1,0,34.462A85.032,85.032,0,0,1,156.4,133.3a85.75,85.75,0,0,1-37.617,30.977,85.07,85.07,0,0,1-16.049,4.982A86.132,86.132,0,0,1,85.5,171Zm0-167.648A82.75,82.75,0,0,0,68.945,5.021,81.7,81.7,0,0,0,39.571,17.382,82.389,82.389,0,0,0,9.808,53.525a81.734,81.734,0,0,0-4.787,15.42,82.946,82.946,0,0,0,0,33.111A81.7,81.7,0,0,0,17.382,131.43a82.389,82.389,0,0,0,36.143,29.762,81.734,81.734,0,0,0,15.42,4.787,82.948,82.948,0,0,0,33.111,0,81.7,81.7,0,0,0,29.374-12.361,82.387,82.387,0,0,0,29.762-36.142,81.734,81.734,0,0,0,4.787-15.42,82.948,82.948,0,0,0,0-33.111,81.7,81.7,0,0,0-12.361-29.374A82.388,82.388,0,0,0,117.476,9.808a81.734,81.734,0,0,0-15.42-4.787A82.752,82.752,0,0,0,85.5,3.352Z" transform="translate(51.234 43)" fill="#f8bf07"/>
    <circle id="楕円形_5" data-name="楕円形 5" cx="77" cy="77" r="77" transform="translate(59.234 52)" fill="#f8bf07"/>
    <path id="交差_1" data-name="交差 1" d="M0,77.165A77.178,77.178,0,0,1,147.835,46.129,122.521,122.521,0,0,1,33.519,140.81,77.085,77.085,0,0,1,0,77.165Z" transform="translate(58.793 51.282)" fill="rgba(255,255,255,0.15)"/>
    <rect id="長方形_1" data-name="長方形 1" width="39" height="39" rx="4" transform="translate(117.234 109.5)" fill="#fff"/>
  </g>
</svg>
